<svg xmlns="http://www.w3.org/2000/svg" width="190" height="34" viewBox="0 0 190 34" fill="none">
    <path fill-rule="evenodd" clip-rule="evenodd" d="M65.3949 22.489C65.3949 22.7989 65.2787 23.0313 65.0462 23.1863C64.8138 23.3412 64.6146 23.4187 64.4486 23.4187C64.2825 23.4187 64.1331 23.4021 64.0003 23.3689C63.8675 23.3357 63.7568 23.2638 63.6683 23.1531C63.4469 22.9981 63.3362 22.7768 63.3362 22.489V21.3269C62.805 22.5001 61.831 23.2306 60.4143 23.5183C59.9716 23.629 59.4957 23.6843 58.9866 23.6843C58.4774 23.6843 57.9462 23.5958 57.3928 23.4187C56.8394 23.2416 56.3635 22.9539 55.965 22.5554C55.0796 21.7143 54.6369 20.4525 54.6369 18.7702V11.7975C54.6369 11.4876 54.7365 11.2441 54.9357 11.067C55.135 10.8899 55.3674 10.8013 55.633 10.8013C55.8986 10.8013 56.1311 10.8899 56.3303 11.067C56.5295 11.2441 56.6291 11.4876 56.6291 11.7975V18.9362C56.6291 20.1316 56.8726 20.9616 57.3596 21.4265C57.8466 21.8914 58.5771 22.1238 59.551 22.1238C61.1891 22.1238 62.318 21.4597 62.9378 20.1316C63.1813 19.6667 63.3141 19.1355 63.3362 18.5378V11.7975C63.3362 11.4876 63.4469 11.2441 63.6683 11.067C63.8896 10.8899 64.1331 10.8013 64.3988 10.8013C64.6644 10.8013 64.8968 10.8899 65.096 11.067C65.2953 11.2441 65.3949 11.4876 65.3949 11.7975V22.489ZM70.8419 12.9264C71.3732 11.3547 72.5353 10.5689 74.3283 10.5689C74.6603 10.5689 74.9093 10.663 75.0754 10.8512C75.2414 11.0393 75.3244 11.2385 75.3244 11.4488C75.3244 11.6591 75.2414 11.8583 75.0754 12.0465C74.9093 12.2346 74.605 12.3287 74.1623 12.3287C73.7195 12.3287 73.2768 12.4173 72.8341 12.5943C72.3914 12.7714 72.0262 13.026 71.7384 13.358C71.1407 14.0885 70.8419 15.0514 70.8419 16.2467V22.489C70.8419 22.7989 70.7312 23.0313 70.5099 23.1863C70.2885 23.3412 70.0893 23.4187 69.9122 23.4187C69.7351 23.4187 69.5912 23.4021 69.4806 23.3689C69.3699 23.3357 69.2592 23.2638 69.1485 23.1531C68.9493 23.0203 68.8497 22.7989 68.8497 22.489V11.7975C68.8497 11.5097 68.9493 11.2717 69.1485 11.0836C69.3477 10.8954 69.5968 10.8013 69.8956 10.8013C70.1944 10.8013 70.4269 10.8954 70.5929 11.0836C70.7589 11.2717 70.8419 11.5097 70.8419 11.7975V12.9264ZM83.6933 23.6843C81.7011 23.6843 80.1627 22.8653 79.078 21.2273V22.5222C79.0559 22.81 78.9508 23.0313 78.7626 23.1863C78.5745 23.3412 78.3531 23.4187 78.0985 23.4187C77.844 23.4187 77.6171 23.3357 77.4179 23.1697C77.2186 23.0037 77.119 22.7768 77.119 22.489V6.28566C77.119 5.97576 77.2297 5.74333 77.4511 5.58838C77.6724 5.43343 77.9159 5.35596 78.1815 5.35596C78.4472 5.35596 78.6796 5.4279 78.8788 5.57178C79.078 5.71566 79.1777 5.95362 79.1777 6.28566V12.86C79.5761 12.1295 80.218 11.554 81.1035 11.1334C81.8561 10.7571 82.7028 10.5689 83.6435 10.5689C84.5843 10.5689 85.3923 10.7515 86.0674 11.1168C86.7425 11.482 87.2793 11.9635 87.6778 12.5611C88.5632 13.7343 89.0059 15.2506 89.0059 17.11C89.0059 18.9252 88.5854 20.4304 87.7442 21.6257C86.7702 22.9981 85.4199 23.6843 83.6933 23.6843ZM79.1777 16.944C79.1777 17.6081 79.2441 18.2666 79.3769 18.9196C79.5097 19.5726 79.7421 20.1205 80.0742 20.5632C80.7604 21.6036 81.8339 22.1238 83.2949 22.1238C84.933 22.1238 86.0176 21.1941 86.5489 19.3347C86.7259 18.6706 86.82 17.9567 86.8311 17.193C86.8422 16.4294 86.7813 15.7653 86.6485 15.2008C86.5157 14.6364 86.3164 14.1217 86.0508 13.6569C85.3867 12.6386 84.4017 12.1295 83.0957 12.1295C81.7454 12.1295 80.7382 12.6054 80.0742 13.5572C79.4765 14.3763 79.1777 15.5052 79.1777 16.944ZM97.5741 15.7487C98.039 15.7487 98.5038 15.7598 98.9687 15.7819V14.7194C98.9687 12.9928 98.0058 12.1295 96.0799 12.1295C95.2166 12.1295 94.5858 12.207 94.1873 12.3619C93.479 12.6275 92.9699 12.8544 92.66 13.0426C92.3501 13.2307 92.1066 13.3248 91.9295 13.3248C91.7524 13.3248 91.5864 13.2584 91.4314 13.1256C91.2765 12.9928 91.199 12.8157 91.199 12.5943C91.199 12.4173 91.2986 12.2402 91.4978 12.0631C92.5382 11.067 94.0766 10.5689 96.1131 10.5689C98.4595 10.5689 99.9648 11.3547 100.629 12.9264C100.85 13.4798 100.961 14.1217 100.961 14.8522L100.894 22.5222C100.894 22.81 100.795 23.0313 100.596 23.1863C100.396 23.3412 100.175 23.4187 99.9316 23.4187C99.6881 23.4187 99.4667 23.3523 99.2675 23.2195C99.0683 23.0867 98.9687 22.8653 98.9687 22.5554V21.3601C98.4374 22.5112 97.4856 23.2306 96.1131 23.5183C95.6926 23.629 95.2166 23.6843 94.6854 23.6843C94.1541 23.6843 93.6284 23.6069 93.1082 23.4519C92.588 23.297 92.1287 23.0535 91.7303 22.7214C90.9112 22.0352 90.5017 21.1055 90.5017 19.9323C90.5017 17.1432 92.8592 15.7487 97.5741 15.7487ZM98.9687 17.2428C98.6145 17.2871 98.205 17.3093 97.7401 17.3093C97.2753 17.3093 96.7994 17.3148 96.3124 17.3259C95.8254 17.3369 95.3605 17.3923 94.9178 17.4919C94.4751 17.5915 94.0767 17.7409 93.7225 17.9401C92.9699 18.3386 92.5714 18.9916 92.5272 19.8991C92.5272 20.6075 92.8149 21.1609 93.3904 21.5593C93.8332 21.9135 94.464 22.1016 95.2831 22.1238C96.2792 22.1238 97.1424 21.8028 97.8729 21.1609C98.537 20.5411 98.9022 19.6114 98.9687 18.3718V17.2428ZM104.349 11.7643C104.349 11.4765 104.46 11.2441 104.681 11.067C104.903 10.8899 105.124 10.8013 105.345 10.8013C105.81 10.8013 106.109 10.9784 106.242 11.3326C106.375 11.6868 106.408 12.218 106.341 12.9264C106.607 12.2623 107.183 11.6868 108.068 11.1998C108.843 10.7792 109.612 10.5689 110.376 10.5689C111.139 10.5689 111.787 10.663 112.318 10.8512C112.849 11.0393 113.336 11.3326 113.779 11.731C114.665 12.5722 115.107 13.8118 115.107 15.4499V22.489C115.107 22.7989 114.991 23.0313 114.759 23.1863C114.526 23.3412 114.288 23.4187 114.045 23.4187C113.779 23.4187 113.547 23.3357 113.347 23.1697C113.148 23.0037 113.049 22.7768 113.049 22.489V15.317C113.049 14.2767 112.761 13.4798 112.185 12.9264C111.654 12.3951 110.99 12.1295 110.193 12.1295C109.131 12.1295 108.223 12.4394 107.47 13.0592C106.718 13.7233 106.341 14.7415 106.341 16.1139V22.489C106.341 22.7989 106.231 23.0313 106.009 23.1863C105.788 23.3412 105.545 23.4187 105.279 23.4187C105.013 23.4187 104.792 23.3357 104.615 23.1697C104.438 23.0037 104.349 22.7768 104.349 22.489V11.7643ZM122.747 27.9344C122.393 27.9123 122.216 27.702 122.216 27.3035C122.216 27.1486 122.271 26.9936 122.382 26.8387C122.493 26.6837 122.714 26.6063 123.046 26.6063C123.378 26.6063 123.677 26.5841 123.943 26.5399C124.208 26.4956 124.408 26.3849 124.54 26.2078C124.762 25.9865 124.872 25.3667 124.872 24.3484V11.8639C124.872 11.5318 124.972 11.2717 125.171 11.0836C125.37 10.8954 125.57 10.8013 125.769 10.8013C125.968 10.8013 126.134 10.829 126.267 10.8844C126.4 10.9397 126.51 11.0227 126.599 11.1334C126.798 11.3105 126.898 11.554 126.898 11.8639V23.8172C126.898 24.6141 126.865 25.2892 126.798 25.8426C126.732 26.396 126.577 26.8498 126.333 27.2039C125.913 27.8237 124.961 28.1336 123.478 28.1336H123.279C123.168 28.1336 123.052 28.1115 122.93 28.0672C122.808 28.0229 122.747 27.9787 122.747 27.9344ZM127.263 6.41847C127.263 6.77265 127.136 7.06041 126.881 7.28177C126.627 7.50313 126.284 7.6138 125.852 7.6138C125.42 7.6138 125.088 7.50313 124.856 7.28177C124.623 7.06041 124.507 6.77265 124.507 6.41847C124.507 6.10857 124.623 5.84295 124.856 5.62159C125.088 5.40023 125.426 5.28955 125.869 5.28955C126.289 5.28955 126.627 5.40023 126.881 5.62159C127.136 5.84295 127.263 6.10857 127.263 6.41847ZM141.144 22.489C141.144 22.7989 141.028 23.0313 140.795 23.1863C140.563 23.3412 140.364 23.4187 140.198 23.4187C140.031 23.4187 139.882 23.4021 139.749 23.3689C139.616 23.3357 139.506 23.2638 139.417 23.1531C139.196 22.9981 139.085 22.7768 139.085 22.489V21.3269C138.554 22.5001 137.58 23.2306 136.163 23.5183C135.721 23.629 135.245 23.6843 134.736 23.6843C134.226 23.6843 133.695 23.5958 133.142 23.4187C132.588 23.2416 132.112 22.9539 131.714 22.5554C130.829 21.7143 130.386 20.4525 130.386 18.7702V11.7975C130.386 11.4876 130.485 11.2441 130.685 11.067C130.884 10.8899 131.116 10.8013 131.382 10.8013C131.648 10.8013 131.88 10.8899 132.079 11.067C132.278 11.2441 132.378 11.4876 132.378 11.7975V18.9362C132.378 20.1316 132.622 20.9616 133.109 21.4265C133.596 21.8914 134.326 22.1238 135.3 22.1238C136.938 22.1238 138.067 21.4597 138.687 20.1316C138.93 19.6667 139.063 19.1355 139.085 18.5378V11.7975C139.085 11.4876 139.196 11.2441 139.417 11.067C139.639 10.8899 139.882 10.8013 140.148 10.8013C140.413 10.8013 140.646 10.8899 140.845 11.067C141.044 11.2441 141.144 11.4876 141.144 11.7975V22.489ZM144.599 11.7643C144.599 11.4765 144.709 11.2441 144.931 11.067C145.152 10.8899 145.373 10.8013 145.595 10.8013C146.06 10.8013 146.358 10.9784 146.491 11.3326C146.624 11.6868 146.657 12.218 146.591 12.9264C146.856 12.2623 147.432 11.6868 148.317 11.1998C149.092 10.7792 149.861 10.5689 150.625 10.5689C151.389 10.5689 152.036 10.663 152.567 10.8512C153.099 11.0393 153.586 11.3326 154.028 11.731C154.914 12.5722 155.357 13.8118 155.357 15.4499V22.489C155.357 22.7989 155.24 23.0313 155.008 23.1863C154.776 23.3412 154.538 23.4187 154.294 23.4187C154.028 23.4187 153.796 23.3357 153.597 23.1697C153.398 23.0037 153.298 22.7768 153.298 22.489V15.317C153.298 14.2767 153.01 13.4798 152.435 12.9264C151.903 12.3951 151.239 12.1295 150.442 12.1295C149.38 12.1295 148.472 12.4394 147.72 13.0592C146.967 13.7233 146.591 14.7415 146.591 16.1139V22.489C146.591 22.7989 146.48 23.0313 146.259 23.1863C146.037 23.3412 145.794 23.4187 145.528 23.4187C145.263 23.4187 145.041 23.3357 144.864 23.1697C144.687 23.0037 144.599 22.7768 144.599 22.489V11.7643ZM163.858 12.1627C161.379 12.1627 160.14 13.8118 160.14 17.11C160.14 18.6595 160.527 19.877 161.302 20.7624C161.966 21.5372 162.829 21.9356 163.892 21.9578C164.976 21.9578 165.895 21.5483 166.647 20.7292C167.444 19.8659 167.843 18.6817 167.843 17.1764C167.843 14.9186 167.134 13.3912 165.718 12.5943C165.231 12.3066 164.611 12.1627 163.858 12.1627ZM163.327 10.5689C165.496 10.5689 167.024 11.399 167.909 13.0592V11.6646C167.953 11.399 168.064 11.1887 168.241 11.0338C168.418 10.8788 168.629 10.8013 168.872 10.8013C169.116 10.8013 169.337 10.8899 169.536 11.067C169.735 11.2441 169.835 11.4765 169.835 11.7643V23.6843C169.835 25.4109 169.282 26.6948 168.175 27.536C167.179 28.3329 165.74 28.7313 163.858 28.7313C162.176 28.7313 160.914 28.4435 160.073 27.868C159.409 27.381 159.077 26.9826 159.077 26.6727C159.077 26.4513 159.149 26.2687 159.293 26.1248C159.437 25.9809 159.603 25.909 159.791 25.909C159.979 25.909 160.162 25.9699 160.339 26.0916C160.516 26.2134 160.726 26.3296 160.97 26.4402C161.213 26.5509 161.457 26.6505 161.7 26.7391C162.342 26.9604 163.001 27.0711 163.676 27.0711C164.351 27.0711 164.937 27.0158 165.436 26.9051C165.934 26.7944 166.36 26.6063 166.714 26.3406C167.466 25.8536 167.843 25.0125 167.843 23.8172V20.9284C167.201 22.1459 166.183 22.9317 164.788 23.2859C164.345 23.3744 163.914 23.4187 163.493 23.4187C161.656 23.4187 160.25 22.7879 159.276 21.5261C158.369 20.3972 157.915 18.9473 157.915 17.1764C157.915 15.2949 158.369 13.7565 159.276 12.5611C160.228 11.233 161.578 10.5689 163.327 10.5689ZM173.057 6.35207C173.057 5.99789 173.168 5.74333 173.389 5.58838C173.611 5.43343 173.81 5.35596 173.987 5.35596C174.164 5.35596 174.308 5.36703 174.419 5.38916C174.529 5.4113 174.64 5.4777 174.751 5.58838C174.994 5.74333 175.116 5.99789 175.116 6.35207V22.4226C175.116 22.7546 175.005 23.0037 174.784 23.1697C174.563 23.3357 174.319 23.4187 174.054 23.4187C173.788 23.4187 173.555 23.3357 173.356 23.1697C173.157 23.0037 173.057 22.7546 173.057 22.4226V6.35207ZM189.827 16.7448C189.827 17.2096 189.561 17.4642 189.03 17.5085H179.932C180.021 19.7663 180.906 21.2273 182.588 21.8914C183.053 22.0463 183.585 22.1238 184.182 22.1238C185.422 22.1238 186.684 21.67 187.967 20.7624C188.366 20.5411 188.698 20.5632 188.964 20.8288C189.096 20.9617 189.141 21.0945 189.096 21.2273C189.096 21.5372 189.019 21.7585 188.864 21.8914C187.646 23.1088 186.042 23.7065 184.049 23.6843C182.234 23.6843 180.773 23.0978 179.667 21.9246C178.427 20.7071 177.807 19.1023 177.807 17.11C177.807 15.2728 178.316 13.7565 179.335 12.5611C180.397 11.233 181.902 10.5689 183.85 10.5689C185.798 10.5689 187.281 11.1555 188.3 12.3287C189.273 13.3912 189.783 14.8632 189.827 16.7448ZM187.868 16.1471C187.801 14.9518 187.414 13.9668 186.706 13.192C186.042 12.4837 185.09 12.1295 183.85 12.1295C182.788 12.1295 181.88 12.5279 181.128 13.3248C180.441 14.1217 180.065 15.0625 179.999 16.1471H187.868Z" fill="#FF6414"/>
    <path fill-rule="evenodd" clip-rule="evenodd" d="M21.4228 33.5661C9.61006 33.5661 0 23.9563 0 12.1441C0 8.30346 1.02875 4.53496 2.9753 1.24668C3.35613 0.603856 4.18576 0.391265 4.82862 0.771513C5.47148 1.15204 5.68437 1.98162 5.30354 2.62473C3.60384 5.49597 2.70541 8.7879 2.70541 12.1441C2.70541 22.4642 11.1019 30.8606 21.4228 30.8606C31.7434 30.8606 40.1399 22.4642 40.1399 12.1441C40.1399 8.56324 39.1258 5.08343 37.2073 2.08104C36.8051 1.45169 36.9894 0.61537 37.6188 0.212936C38.2484 -0.189218 39.0845 -0.00499082 39.487 0.624357C41.684 4.0626 42.8453 8.04622 42.8453 12.1441C42.8453 23.9563 33.2353 33.5661 21.4228 33.5661Z" fill="#FF6414"/>
    <path fill-rule="evenodd" clip-rule="evenodd" d="M21.242 28.2763C13.5245 28.2763 6.73672 22.8916 5.01905 15.3487C4.85335 14.6199 5.30917 13.8951 6.03797 13.7297C6.76705 13.564 7.49108 14.0198 7.65706 14.748C9.11775 21.1628 14.9642 25.7176 21.5481 25.5673C25.2688 25.4856 28.735 23.9601 31.3078 21.2709C33.8807 18.5825 35.2526 15.0527 35.1706 11.3322C35.1389 9.89123 34.8889 8.47611 34.4275 7.12614C34.1857 6.41957 34.5629 5.65064 35.2698 5.40913C35.9772 5.16733 36.7456 5.54421 36.9872 6.25135C37.5387 7.86417 37.8376 9.55367 37.8755 11.2726C37.9732 15.7157 36.335 19.9307 33.2625 23.1415C30.1898 26.3523 26.0509 28.1746 21.6079 28.2721C21.4857 28.2749 21.3636 28.2763 21.242 28.2763Z" fill="#FF6414"/>
    <path fill-rule="evenodd" clip-rule="evenodd" d="M35.784 2.4099C35.784 1.54409 35.0822 0.842285 34.2163 0.842285C33.3505 0.842285 32.6486 1.54409 32.6486 2.4099C32.6486 3.27571 33.3505 3.97751 34.2163 3.97751C35.0822 3.97751 35.784 3.27571 35.784 2.4099Z" fill="#FF6414"/>
</svg>